<mxfile modified="2022-02-09T12:33:06.423Z" host="app.diagrams.net" agent="5.0 (Windows)" etag="UHoKcJG_UG7lqDj3DI7i" version="16.5.3" type="github">
  <diagram id="6IyN1yxz_EUKU6p1L3d3" name="Page-1">
    <mxGraphModel dx="1038" dy="537" grid="1" gridSize="10" guides="1" tooltips="1" connect="1" arrows="1" fold="1" page="1" pageScale="1" pageWidth="850" pageHeight="1100" math="0" shadow="0">
      <root>
        <mxCell id="0" />
        <mxCell id="1" parent="0" />
        <mxCell id="bC9mAllne671p5dbn9rO-3" value="" style="rounded=0;whiteSpace=wrap;html=1;" parent="1" vertex="1">
          <mxGeometry x="120" y="80" width="630" height="970" as="geometry" />
        </mxCell>
        <mxCell id="bC9mAllne671p5dbn9rO-5" value="Actor" style="shape=umlActor;verticalLabelPosition=bottom;labelBackgroundColor=#ffffff;verticalAlign=top;html=1;outlineConnect=0;" parent="1" vertex="1">
          <mxGeometry x="35" y="284" width="50" height="110" as="geometry" />
        </mxCell>
        <mxCell id="bC9mAllne671p5dbn9rO-13" value="Actor" style="shape=umlActor;verticalLabelPosition=bottom;labelBackgroundColor=#ffffff;verticalAlign=top;html=1;outlineConnect=0;" parent="1" vertex="1">
          <mxGeometry x="782" y="284" width="50" height="110" as="geometry" />
        </mxCell>
        <mxCell id="XLtC2qS3hwPV-j5Zmhv8-2" value="School Registration System" style="text;html=1;strokeColor=none;fillColor=none;align=center;verticalAlign=middle;whiteSpace=wrap;rounded=0;fontSize=21;" parent="1" vertex="1">
          <mxGeometry x="248" y="30" width="360" height="20" as="geometry" />
        </mxCell>
        <mxCell id="gSO6hqMrZtGCwGLNFeWU-4" value="" style="ellipse;whiteSpace=wrap;html=1;rounded=1;" vertex="1" parent="1">
          <mxGeometry x="120" y="80" width="90" height="45" as="geometry" />
        </mxCell>
        <mxCell id="gSO6hqMrZtGCwGLNFeWU-7" value="" style="ellipse;whiteSpace=wrap;html=1;rounded=1;" vertex="1" parent="1">
          <mxGeometry x="120" y="316" width="90" height="46" as="geometry" />
        </mxCell>
        <mxCell id="gSO6hqMrZtGCwGLNFeWU-8" value="Start" style="text;html=1;strokeColor=none;fillColor=none;align=center;verticalAlign=middle;whiteSpace=wrap;rounded=0;" vertex="1" parent="1">
          <mxGeometry x="135" y="87.5" width="60" height="30" as="geometry" />
        </mxCell>
        <mxCell id="gSO6hqMrZtGCwGLNFeWU-9" value="Stop" style="text;html=1;strokeColor=none;fillColor=none;align=center;verticalAlign=middle;whiteSpace=wrap;rounded=0;" vertex="1" parent="1">
          <mxGeometry x="135" y="324" width="60" height="30" as="geometry" />
        </mxCell>
      </root>
    </mxGraphModel>
  </diagram>
</mxfile>
